<?xml version="1.0" encoding="UTF-8"?>
<svg id="Capa_1" data-name="Capa 1" xmlns="http://www.w3.org/2000/svg" viewBox="0 0 100 100">
  <defs>
    <style>
      .cls-1 {
        fill: #005cb9;
      }
    </style>
  </defs>
  <g>
    <g>
      <path class="cls-1" d="M33.44,51.63c-6.11,0-11.47-5.46-11.47-11.7,0-7.56,10.29-19.69,10.73-20.19.18-.21.44-.34.72-.34.29-.01.55.11.74.32.44.47,10.75,11.75,10.75,20.22,0,6.23-5.36,11.7-11.47,11.7ZM33.47,21.87c-2.33,2.88-9.54,12.29-9.54,18.06,0,5.19,4.44,9.75,9.51,9.75s9.53-4.56,9.53-9.75c0-6.47-7.15-15.31-9.5-18.06Z"/>
      <path class="cls-1" d="M37.52,47.45c-.32,0-.62-.15-.8-.42-.32-.45-.2-1.05.25-1.36,1.94-1.34,3.14-3.6,3.14-5.9,0-.54.43-.97.97-.97s.98.43.98.97c0,2.92-1.53,5.8-3.98,7.5-.17.11-.36.17-.55.17Z"/>
    </g>
    <g>
      <path class="cls-1" d="M44.73,80.61c-.32,0-.67,0-1.06-.03-5.22-.2-9.08-1.82-12.89-3.59-5.75-2.69-7.93-5.48-10.45-8.71l-.29-.37c-1.78-2.26-5.22-7.92-4.58-10.98.18-.86.68-1.54,1.39-1.93,1.55-.83,3.48-.17,5.76,1.94,1.68,1.57,2.93,2.93,4.04,4.13,1.72,1.89,3.08,3.37,5.23,4.58.05.03.12.07.17.09-.36-1.71,1.35-3.67,5.79-6.71,7.07-4.85,10.58-6.68,13.39-6.99,2.53-.28,4.07.15,6.86.92,1.77.49,4.17,1.16,7.86,1.95,2.83.61,5.45,1.05,9.39,1.69.42,0,.79.21,1.16.41.13.07.32.18.42.21.23,0,.48,0,.74,0,.93,0,2.07-.02,3.8.07.34.02.64.21.81.5.13.23.15.51.07.75.86.78,1.36,2.57.02,7.97-.38,1.51-.43,2.49-.47,3.2-.06.94-.1,1.82-1.12,2.43-.25.15-.48.24-.7.29-.19.15-.41.22-.65.21-.02,0-.06,0-.12,0-2.78.05-4.74-.11-5.89-.25-2.05-.25-3.72.35-7.04,1.57-.64.23-1.31.49-2.04.74-2.15.77-4.01,1.45-5.63,2.03l-.1.04c-8.54,3.09-10.58,3.82-13.86,3.82ZM18.26,56.6c-.19,0-.34.04-.48.12-.21.1-.34.31-.41.61-.38,1.81,1.9,6.43,4.2,9.36l.3.37c2.37,3.04,4.41,5.66,9.74,8.15,3.62,1.7,7.27,3.23,12.14,3.42.37.01.69.02.99.02,2.94,0,4.91-.71,13.19-3.7l.1-.04c1.63-.58,3.49-1.26,5.65-2.03.72-.26,1.39-.51,2.01-.73,3.4-1.25,5.43-2,7.96-1.69,1.01.12,2.67.26,5.02.24.22-.16.52-.23.81-.16,0,0,.11.03.28-.08.07-.04.09-.07.09-.07.05-.08.07-.48.08-.8.04-.75.11-1.88.52-3.56,1.15-4.61.73-5.79.61-6.02l-.22-.03c-.32-.04-.59-.24-.74-.53-.04-.09-.08-.19-.09-.28-.97-.03-1.71-.02-2.34-.02-.29,0-.56.01-.81.01-.49-.01-.92-.25-1.31-.46-.1-.05-.25-.13-.34-.17-.04,0-.07,0-.11-.02-4.04-.65-6.69-1.09-9.58-1.71-3.75-.81-6.19-1.48-7.96-1.98-2.73-.76-3.97-1.1-6.13-.87-2.42.26-5.81,2.07-12.5,6.66-5.21,3.57-5.02,4.64-4.94,4.81.58,1.15,3.68,1.57,6.06.44.56-.26.76-.36.95-.45.23-.1.41-.19,1.19-.56l.29-.14c.59-.29,1.81-.89,2.79-1.28.41-.16.88-.02,1.15.34.26.36.25.85-.04,1.19-.2.25-.42.5-.66.73-2.19,2.17-5.34,2.82-6.26,2.97-1.12.19-5.04.62-8.53-1.35-2.41-1.35-3.86-2.94-5.7-4.95-1.09-1.18-2.31-2.51-3.94-4.02-1.24-1.16-2.28-1.76-3.01-1.76ZM75.17,58.53h0Z"/>
      <polygon class="cls-1" points="76.41 56.87 84.21 57.84 82.29 73.51 74.23 72.71 76.41 56.87"/>
      <path class="cls-1" d="M82.54,74.38l-9.09-1.13,2.07-17.17,9.1,1.13-2.08,17.17ZM74.97,71.94l6.41.8,1.72-14.22-6.42-.81"/>
    </g>
  </g>
  <path class="cls-1" d="M42.75,50.8c-.33,0-.66-.17-.84-.49-.27-.47-.12-1.06.34-1.34,2.23-1.3,3.84-4.31,3.84-7.14,0-.54.43-.98.98-.98s.97.44.97.98c0,3.54-1.97,7.17-4.8,8.83-.15.09-.32.14-.5.14Z"/>
</svg>