<?xml version="1.0" encoding="UTF-8"?>
<svg id="Capa_1" data-name="Capa 1" xmlns="http://www.w3.org/2000/svg" viewBox="0 0 100 100">
  <defs>
    <style>
      .cls-1 {
        fill: #005cb9;
      }
    </style>
  </defs>
  <path class="cls-1" d="M45.53,36.46c-.51,0-.92-.41-.92-.93v-11.9c0-2.06,1.68-3.75,3.74-3.75s3.74,1.69,3.74,3.75v8.01c0,.52-.41.93-.92.93s-.94-.41-.94-.93v-8.01c0-1.04-.84-1.89-1.88-1.89s-1.89.85-1.89,1.89v11.9c0,.51-.41.93-.93.93Z"/>
  <path class="cls-1" d="M39.9,37.05c-.5,0-.92-.41-.92-.93v-6.55c0-2.06,1.68-3.75,3.74-3.75s3.74,1.69,3.74,3.75v5.96c0,.51-.41.93-.93.93s-.92-.41-.92-.93v-5.96c0-1.04-.86-1.89-1.89-1.89s-1.89.85-1.89,1.89v6.55c0,.52-.42.93-.94.93Z"/>
  <path class="cls-1" d="M39.9,37.05c-.5,0-.92-.41-.92-.93v-1.47c0-1.03-.86-1.88-1.9-1.88s-1.88.85-1.88,1.88v1.24c0,.52-.41.92-.93.92s-.92-.4-.92-.92v-1.24c0-2.06,1.68-3.74,3.73-3.74s3.75,1.69,3.75,3.74v1.47c0,.52-.42.93-.94.93Z"/>
  <path class="cls-1" d="M34.28,64.57c-.51,0-.92-.41-.92-.93v-5.22c0-.51.41-.93.92-.93s.93.41.93.93v5.22c0,.51-.41.93-.93.93Z"/>
  <path class="cls-1" d="M55.62,68.99h-21.34c-.51,0-.92-.41-.92-.93v-4.41c0-.52.41-.93.92-.93s.93.41.93.93v3.48h19.48v-1.96c0-1.18.4-2.36,1.1-3.31l11.97-15.92c.56-.75.55-1.79-.03-2.52-.38-.48-.93-.76-1.52-.79-.6-.03-1.18.21-1.6.64-4.58,4.8-7.15,7.5-7.15,7.5-.36.37-.95.38-1.32.03-.38-.36-.38-.94-.03-1.32,0,0,2.57-2.67,7.15-7.49.8-.83,1.88-1.27,3.02-1.23,1.15.07,2.2.62,2.91,1.51,1.1,1.4,1.12,3.36.05,4.79l-11.97,15.92c-.48.63-.73,1.41-.73,2.19v2.88c0,.52-.43.93-.93.93Z"/>
  <path class="cls-1" d="M51.17,32.57c-.51,0-.94-.41-.94-.93v-2.07c0-2.06,1.68-3.75,3.74-3.75s3.75,1.69,3.75,3.75v1.39c0,.51-.41.93-.92.93s-.92-.42-.92-.93v-1.39c0-1.04-.84-1.89-1.9-1.89s-1.88.85-1.88,1.89v2.07c0,.52-.41.93-.92.93Z"/>
  <path class="cls-1" d="M57.17,74.04h-24.42c-1.04,0-1.86-.67-1.86-1.52v-3.87c0-.85.82-1.52,1.86-1.52h24.42c1.04,0,1.85.68,1.85,1.52v3.87c0,.86-.81,1.52-1.85,1.52ZM32.75,72.18h24.42v-3.19h-24.42v3.19Z"/>
  <path class="cls-1" d="M50.03,60.54h-.06c-.51-.03-.91-.47-.87-.98.58-9.62,7.54-10.35,7.62-10.35.52-.04.95.33,1,.84.05.5-.32.95-.84,1-.23.03-5.45.67-5.92,8.63-.03.49-.43.87-.92.87Z"/>
  <path class="cls-1" d="M72.12,63.47c-1.73,0-3.33-.67-4.57-2.54-3.19-4.83-5.44-4.96-5.47-4.96-.48-.01-.91-.42-.91-.92s.38-.91.88-.93c.32-.02,3.27.04,7.06,5.8,1.94,2.93,5.26,1.56,9.41-.53,1.6-.8,2.99-1.49,4.12-1.64-.05-.45-.5-1.45-.84-2.22-1.37-3.12-3.46-7.84-.48-12.49,2.97-4.61,2.27-12.48-.43-15.21-1.14-1.17-2.48-1.25-4.06-.27-5.07,3.15-7.5,3.34-10.83,3.59-1.36.11-2.91.23-4.88.58-2.98.52-4.83.25-6.18.04-1.78-.27-2.42-.38-4.25,1.6-3.99,4.33-9.9,4.1-17.8,3.32-4.28-.42-5.69-2.08-6.43-2.96-.04-.05-.08-.1-.12-.15-.29.24-.78.77-1.48,1.58-1.52,1.77-3.35,3.05-4.96,4.18-1.59,1.12-3.1,2.18-3.19,3.07-.04.43.26.96.88,1.6,4.2,4.28,6.13,7.41,5.72,9.27-.15.73-.64,1.28-1.37,1.57-.08.02-.18.08-.09.51.33,1.64,2.72,4.12,3.97,4.12h.12c.08,0,7.33.43,10.38-4.27,3.86-5.92,8.41-7.89,12.52-5.4,3.14,1.9,4.64.69,4.71.64.38-.33.97-.29,1.31.09.34.37.3.95-.06,1.29-.11.09-2.52,2.24-6.93-.44-4.28-2.6-8.1,1.91-10,4.83-3.53,5.47-11.25,5.15-12.01,5.12-2.3,0-5.34-3.2-5.83-5.6-.26-1.24.2-2.21,1.24-2.62.2-.08.2-.15.22-.21.14-.68-.79-3.05-5.24-7.6-1.03-1.04-1.48-2.04-1.39-3.05.16-1.76,1.93-2.99,3.96-4.43,1.52-1.06,3.25-2.27,4.62-3.86,1.41-1.64,2.11-2.34,2.96-2.34.7,0,1.12.49,1.48.91.62.74,1.68,1.96,5.21,2.32,7.6.76,12.84.98,16.24-2.74,2.37-2.56,3.72-2.5,5.91-2.18,1.29.2,2.9.44,5.57-.03,2.06-.37,3.66-.49,5.07-.61,3.19-.24,5.3-.41,10-3.33,2.33-1.43,4.59-1.25,6.36.55,3.25,3.3,4.18,12.02.68,17.51-2.46,3.81-.7,7.81.61,10.74.77,1.75,1.33,3.01.79,3.97-.19.33-.59.74-1.4.84-.82.09-2.14.76-3.54,1.45-2.17,1.1-4.83,2.44-7.24,2.44Z"/>
  <path class="cls-1" d="M21.92,54.74c-.32,0-.63-.15-.8-.45-.26-.44-.12-1.01.33-1.27.04-.03,1.62-1.01,2.08-2.66.14-.5.65-.79,1.15-.65.5.15.79.65.65,1.16-.67,2.39-2.83,3.7-2.93,3.75-.14.09-.31.13-.47.13Z"/>
  <path class="cls-1" d="M79.25,38.03c-.19,0-.4-.06-.56-.19-.41-.31-.49-.89-.18-1.3.45-.6.62-1.12.49-1.56-.23-.74-1.33-1.27-1.6-1.36-.49-.19-.74-.71-.57-1.18.17-.49.71-.74,1.19-.58.22.09,2.24.85,2.77,2.61.21.7.24,1.82-.79,3.21-.18.23-.46.36-.74.36Z"/>
  <path class="cls-1" d="M74.05,56.91c-1.65,0-2.9-1.25-3.03-1.39-.36-.38-.35-.96.03-1.32.35-.35.95-.35,1.31.03.24.25,1.05.89,1.82.82.51-.04.99-.39,1.43-1.05.29-.43.86-.53,1.28-.26.44.29.54.87.25,1.29-.77,1.15-1.71,1.78-2.79,1.88-.1,0-.19,0-.29,0Z"/>
  <path class="cls-1" d="M25.42,41.84c-.11,0-.21-.01-.32-.05-.48-.19-.73-.71-.56-1.19.03-.09.8-2.16,1.76-3.4.19-.25.48-.39.8-.36.31.02.6.2.75.47,0,0,.44.55,1.93.44.51-.04.95.35.99.86.05.51-.35.95-.85,1-1.24.09-2.1-.15-2.66-.46-.45.8-.83,1.71-.96,2.09-.15.37-.5.61-.88.61Z"/>
  <path class="cls-1" d="M60.16,80.11h-30.42c-.51,0-.92-.41-.92-.93v-6.06c0-.52.41-.94.92-.94h30.42c.52,0,.94.43.94.94v6.06c0,.51-.41.93-.94.93ZM30.67,78.26h28.57v-4.22h-28.57v4.22Z"/>
</svg>