<?xml version="1.0" encoding="UTF-8"?>
<svg id="Capa_1" data-name="Capa 1" xmlns="http://www.w3.org/2000/svg" viewBox="0 0 100 100">
  <defs>
    <style>
      .cls-1 {
        fill: #005cb9;
      }
    </style>
  </defs>
  <path class="cls-1" d="M89.63,22.97c.04-.52-.24-1.01-.7-1.25-.46-.24-1.02-.17-1.42.16-6.14,5.17-11.44,8.7-17.73,11.8-5.74,2.83-11.23,4.55-16.55,6.21-6.39,2-12.43,3.89-17.74,7.45-.3.2-.5.52-.56.88-.4,2.63-.43,5.3-.08,7.92.06.46.14.92.22,1.38-.46-.53-.91-1.14-1.35-1.82-.66-1.02-1.21-2.11-1.64-3.26-.16-.41-.49-.72-.95-.81-.44-.09-.88.06-1.19.38-.34.36-.68.73-1.01,1.12-4.65,5.39-5.05,11.24-3.3,15.72-.53.23-1.05.46-1.57.68-.33-.95-.78-1.84-1.37-2.66-1.45-2.02-3.29-3.08-4.58-3.61-.66-.27-1.41.04-1.68.7-.27.66.04,1.41.7,1.68.98.4,2.38,1.21,3.47,2.73.48.66.84,1.39,1.09,2.16-.29.12-.58.23-.87.35-.37-.47-.77-.91-1.23-1.29-1.72-1.37-3.63-1.63-4.61-1.66-.71-.02-1.31.54-1.33,1.25-.02.71.54,1.31,1.25,1.33.66.02,1.94.19,3.07,1.1.11.09.2.19.3.29-2.47.95-4.82,1.77-7,2.45-.68.21-1.06.93-.85,1.61.14.46.52.78.95.88.21.05.44.04.66-.03,2.73-.85,5.73-1.94,8.88-3.19.48-.19.89-.36,1.31-.53.14.49.32.96.56,1.41.78,1.49,1.84,2.72,3.16,3.66.15.1.31.17.47.21.49.11,1.02-.08,1.33-.51.41-.58.28-1.38-.3-1.8-.98-.7-1.78-1.63-2.37-2.76-.2-.38-.33-.8-.42-1.23.71-.3,1.42-.61,2.14-.93.41.65.86,1.25,1.35,1.79,1.67,1.85,3.94,3,6.48,3.56,5.28,1.17,11.74-.17,16.51-2.96,22.71-13.28,37.1-32.19,38.5-50.6ZM49.83,71.34c-6.22,3.64-15.66,4.46-19.78-.1-.32-.35-.61-.74-.89-1.15,4.89-2.25,10.02-4.86,15.21-7.77,1.13,1.42,2.38,2.76,3.75,3.95,1.43,1.24,2.97,2.34,4.61,3.29-.96.6-1.92,1.21-2.91,1.78ZM48.14,60.15c1.39,1.54,3,2.84,4.84,3.84,1.57.86,3.28,1.49,5.06,1.89.04,0,.08.01.11.02-.96.7-1.95,1.38-2.96,2.05-1.93-1-3.74-2.21-5.37-3.63-1.15-1-2.2-2.13-3.17-3.31.5-.29.99-.57,1.49-.86ZM61.08,63.71c-2.43-.18-4.8-.85-6.87-1.98-1.43-.78-2.7-1.76-3.82-2.92,10.15-6.11,20.2-13.23,28.69-20.88.53-.48.57-1.29.09-1.82-.48-.53-1.29-.57-1.82-.09-14.35,12.96-33.24,24.36-49.36,31.77-1.32-3.55-1-8.16,2.53-12.52.32.63.67,1.24,1.05,1.83,1.75,2.71,3.78,4.4,5.17,5.33.46.31,1.07.29,1.51-.05.44-.34.61-.93.42-1.45-.6-1.66-1.02-3.39-1.25-5.13-.29-2.19-.3-4.42-.01-6.63,1.92-1.23,3.96-2.25,6.09-3.15-.1.75-.17,1.51-.21,2.27-.08,1.81.03,3.64.33,5.42.09.53.5.94.99,1.05.16.03.32.04.49.01.7-.12,1.18-.78,1.06-1.49-.27-1.61-.37-3.25-.29-4.87.05-1.17.22-2.34.45-3.49,2.48-.91,5.05-1.73,7.69-2.55,5.41-1.69,11-3.44,16.92-6.36,5.62-2.77,10.46-5.86,15.76-10.09-2.15,13.15-11.49,26.78-25.6,37.81Z"/>
</svg>