<?xml version="1.0" encoding="UTF-8"?>
<svg id="Capa_1" data-name="Capa 1" xmlns="http://www.w3.org/2000/svg" viewBox="0 0 100 100">
  <defs>
    <style>
      .cls-1 {
        fill: #005cb9;
      }
    </style>
  </defs>
  <path class="cls-1" d="M71.46,49.05c-1.02-2.75-2.46-5.36-3.88-7.92-3.49-6.29-7.5-12.16-11.75-17.96-.05-.07-.11-.15-.16-.22,0,0-3.17-4.21-3.57-4.61s-.69-1.04-2.42-1.04c-1.73,0-3.75,3.28-3.75,3.28-2.44,3.23-4.75,6.56-7.03,9.91-3.04,4.47-6.01,8.92-8.38,13.79-1.41,2.91-2.79,5.88-3.56,9.03-.78,3.16-.61,6.19-.22,9.39.79,6.44,5.27,12.7,10.53,16.28,6.72,4.57,15.83,4.87,23.02,1.23,1.41-.71,2.75-1.57,3.99-2.56,5.92-4.69,9.68-12.46,9.26-20.06-.16-2.97-1.07-5.79-2.09-8.56ZM68.64,62.65c-.56,3.09-2.08,5.88-4.09,8.54-4.81,6.38-13.16,7.58-18.68,6.55-4.57-.86-14.27-6.5-15.1-18-.79-10.98,13.87-29.64,19.17-36.94,0,0,13.88,18.38,17.4,27.76,1.64,4.38,2.18,7.27,1.3,12.08Z"/>
</svg>