<svg id="Grupo_472" data-name="Grupo 472" xmlns="http://www.w3.org/2000/svg" xmlns:xlink="http://www.w3.org/1999/xlink" width="30.9" height="32.67" viewBox="0 0 30.9 32.67">
  <defs>
    <clipPath id="clip-path">
      <rect id="Rectángulo_1377" data-name="Rectángulo 1377" width="30.9" height="32.67" fill="#fff"/>
    </clipPath>
  </defs>
  <g id="Grupo_465" data-name="Grupo 465" clip-path="url(#clip-path)">
    <path id="Trazado_877" data-name="Trazado 877" d="M429.47,9.88a4.906,4.906,0,0,0,1.709-.307,4.976,4.976,0,0,0,2.949-6.238,4.828,4.828,0,0,0-2.3-2.714,4.8,4.8,0,0,0-2.37-.62h-.006A4.823,4.823,0,0,0,427.6.371l-.009,0a4.952,4.952,0,0,0-2.665,2.6,4.892,4.892,0,0,0-.089,3.711A4.962,4.962,0,0,0,429.47,9.88m-2.912-4.967a2.9,2.9,0,0,1,2.89-2.884h.011a2.911,2.911,0,0,1,2.892,2.9,2.866,2.866,0,0,1-2.865,2.906h0a2.856,2.856,0,0,1-2.929-2.919" transform="translate(-414.006)" fill="#fff"/>
    <path id="Trazado_878" data-name="Trazado 878" d="M304.55,433.792a1.536,1.536,0,0,0,1.125-.376,1.664,1.664,0,0,0,.352-1.273,7.512,7.512,0,0,0-1.566-4.242,6.915,6.915,0,0,0-3.77-2.5,14.082,14.082,0,0,0-4.171-.3,7.546,7.546,0,0,0-4.989,2.236,7.2,7.2,0,0,0-2.07,4.918,1.575,1.575,0,0,0,.356,1.182,1.516,1.516,0,0,0,1.13.355c1.624-.029,3.279-.024,4.879-.018.63,0,1.281,0,1.923,0h.005c.641,0,1.292,0,1.922-.006,1.569-.007,3.192-.014,4.783.023h.091m-.644-2.1H291.583a5.175,5.175,0,0,1,4.357-4.487,15.463,15.463,0,0,1,3.5-.017,5.158,5.158,0,0,1,4.467,4.5" transform="translate(-282.295 -414.544)" fill="#fff"/>
    <path id="Trazado_879" data-name="Trazado 879" d="M8.6,795.472l-3.067,3.067a3.7,3.7,0,0,0-4.66,5.614c.065.076.134.152.205.223a3.69,3.69,0,0,0,.379.332l0,0,.007.005h0a3.724,3.724,0,0,0,2.228.743c.082,0,.165,0,.244-.008a3.705,3.705,0,0,0,2.974-5.53l3.067-3.067ZM4.94,802.994a1.748,1.748,0,1,1,0-2.474,1.737,1.737,0,0,1,0,2.474" transform="translate(0 -775.784)" fill="#fff"/>
    <path id="Trazado_880" data-name="Trazado 880" d="M854.908,801.613a3.705,3.705,0,0,0-5.536-3.075l-3.067-3.067-1.383,1.383,3.067,3.067a3.7,3.7,0,0,0,2.973,5.53c.08.005.162.008.244.008a3.725,3.725,0,0,0,2.227-.742l.008-.006,0,0a3.682,3.682,0,0,0,.379-.332c.072-.072.141-.147.206-.223a3.693,3.693,0,0,0,.875-2.539m-1.952.142a1.745,1.745,0,1,1-.511-1.237,1.738,1.738,0,0,1,.511,1.237" transform="translate(-824.011 -775.783)" fill="#fff"/>
    <path id="Trazado_881" data-name="Trazado 881" d="M476.745,855.066v-4.337h-1.956v4.337a3.7,3.7,0,0,0,.674,7.265c.1.008.2.012.307.012a3.726,3.726,0,0,0,.5-.034h.015a3.724,3.724,0,0,0,2.1-1.05c.058-.058.114-.118.167-.178a3.705,3.705,0,0,0-1.808-6.013m.772,3.573a1.748,1.748,0,1,1-1.749-1.749,1.737,1.737,0,0,1,1.749,1.749" transform="translate(-460.379 -829.673)" fill="#fff"/>
  </g>
</svg>
