<svg id="Grupo_92" data-name="Grupo 92" xmlns="http://www.w3.org/2000/svg" xmlns:xlink="http://www.w3.org/1999/xlink" width="329.65" height="90.01" viewBox="0 0 329.65 90.01">
  <defs>
    <clipPath id="clip-path">
      <rect id="Rectángulo_1" data-name="Rectángulo 1" width="329.65" height="90.01" fill="#0067b6"/>
    </clipPath>
  </defs>
  <g id="Grupo_1" data-name="Grupo 1" clip-path="url(#clip-path)">
    <path id="Trazado_1" data-name="Trazado 1" d="M315.944,7.688c.043-.555.076-1.138.1-1.754s.031-1.287.031-2.013c0-.248,0-.635-.011-1.164s-.018-1.119-.031-1.776H315.8q-.512,0-.978.031c-.312.023-.61.055-.893.1,0-.039.01-.118.019-.234s.015-.212.015-.284-.007-.178-.022-.318c0-.057-.008-.1-.012-.135q.9.045,1.611.063t1.342.019q.636,0,1.349-.019c.476-.013,1.014-.033,1.608-.063-.007.068-.015.142-.023.222s-.011.156-.011.232,0,.161.009.246.013.174.025.272q-.434-.064-.9-.1t-.98-.031h-.218c-.018.28-.029.584-.037.911s-.011.815-.011,1.462q0,1.716.03,2.661t.089,1.672q-.267-.028-.5-.041c-.157-.009-.306-.013-.447-.013s-.288,0-.438.013-.307.022-.474.041m4.534,0q.135-.854.233-1.462c.065-.407.109-.7.129-.87l.713-5.217a1.987,1.987,0,0,0,.226.031c.078.007.161.011.253.011s.175,0,.257-.011a2.172,2.172,0,0,0,.236-.031q.6,1.323,1.243,2.609T325.1,5.3q.658-1.224,1.294-2.514t1.245-2.65a2.39,2.39,0,0,0,.244.031c.084.007.173.011.266.011s.185,0,.269-.011a2.187,2.187,0,0,0,.243-.031L329.3,5.42c.069.587.13,1.044.184,1.377s.111.63.169.89c-.182-.017-.349-.03-.5-.039s-.3-.015-.443-.015-.288,0-.442.013-.314.022-.477.041c0-.026-.007-.063-.011-.115q-.048-1.157-.081-1.435l-.358-3.522q-.627,1.185-1.251,2.444t-1.277,2.628a.57.57,0,0,0-.085-.017,1.314,1.314,0,0,0-.149-.005,1.115,1.115,0,0,0-.135.005.531.531,0,0,0-.081.017q-.649-1.348-1.267-2.571t-1.218-2.324L321.6,5.087l-.009.087q-.2,1.785-.208,2.514a2.28,2.28,0,0,0-.24-.041,1.738,1.738,0,0,0-.212-.013,1.674,1.674,0,0,0-.217.013c-.072.009-.153.022-.239.041M260.645,90.011c.488-6.663.908-12.354,1.256-17.119s.589-8.149.7-10.176l3.828-61.077a5.889,5.889,0,0,0,1.217.366A6.605,6.605,0,0,0,269,2.135a7.051,7.051,0,0,0,1.385-.129,6.35,6.35,0,0,0,1.267-.366q3.214,15.489,6.679,30.55t7.138,29.9c2.352-9.551,4.675-19.382,6.948-29.428q3.424-15.1,6.689-31.024a7,7,0,0,0,1.316.366,7.471,7.471,0,0,0,1.426.129,7.616,7.616,0,0,0,1.445-.129,6.37,6.37,0,0,0,1.306-.366l3.419,61.832q.553,10.284.986,16.127c.29,3.9.6,7.373.907,10.414-.976-.194-1.874-.346-2.7-.453a18.519,18.519,0,0,0-2.383-.173,18.212,18.212,0,0,0-2.372.151,23.092,23.092,0,0,0-2.563.474c-.019-.3-.04-.733-.059-1.337q-.255-13.549-.439-16.794l-1.924-41.243q-3.364,13.873-6.719,28.61Q287.4,73.96,283.893,90.011a1.6,1.6,0,0,0-.458-.194,3.387,3.387,0,0,0-.8-.065,2.882,2.882,0,0,0-.727.065,1.471,1.471,0,0,0-.438.194q-3.484-15.783-6.809-30.1t-6.54-27.208l-1.435,26.863-.05,1.013q-1.091,20.891-1.116,29.429a7.105,7.105,0,0,0-1.286-.474,4.424,4.424,0,0,0-1.136-.151,4.322,4.322,0,0,0-1.167.151,8.407,8.407,0,0,0-1.286.474M245.252,46.418a15.8,15.8,0,0,0,7.258-8.149q2.437-5.692,2.442-14.53c0-7.5-1.186-13.065-3.56-16.73q-3.51-5.4-10.582-5.5l-.254,0c-2.163,0-4.426.086-6.8.238-2.362.172-3.648.258-3.868.258a9.916,9.916,0,0,1-1.545-.129,12.134,12.134,0,0,1-1.665-.366q.373,9.216.568,19.964t.19,24.449q0,14.519-.19,24.815-.194,10.315-.568,19.274c.977-.216,1.864-.367,2.681-.474a17.9,17.9,0,0,1,2.343-.151,17.3,17.3,0,0,1,2.332.151,22.27,22.27,0,0,1,2.483.474c-.16-4.55-.269-8.839-.349-12.893-.08-4.031-.12-7.933-.12-11.684V47.927q2.493,8.053,4.76,15.8.848,2.891,1.67,5.74c2,7.007,3.868,13.841,5.6,20.546,1-.216,1.934-.367,2.811-.474a20.252,20.252,0,0,1,2.512-.151,21.009,21.009,0,0,1,2.552.151,27.42,27.42,0,0,1,2.761.474Zm-4.441-3.832a7.639,7.639,0,0,1-4.581,1.354h-.239V24.687c0-2.523.019-5.11.049-7.74s.08-5.261.16-7.912a4.856,4.856,0,0,0,.658-.065,4.551,4.551,0,0,1,.627-.064,6.514,6.514,0,0,1,6.191,3.859q1.959,3.848,1.953,12.181c0,6.6-.747,11.427-2.232,14.445a8.4,8.4,0,0,1-2.587,3.2M196.653,90.011q.373-6.825.538-15.631c.11-5.886.16-15.35.16-28.458V39.433c0-9.788-.05-17.421-.16-22.939s-.289-10.478-.538-14.855c1.865.173,3.8.28,5.782.366s4.058.129,6.221.129c2.183,0,4.167-.042,5.971-.129s3.5-.194,5.094-.366c-.1,1.423-.159,2.544-.189,3.342s-.041,1.531-.041,2.2c0,.69.011,1.38.041,2.113.03.754.089,1.854.189,3.321q-4.471-.616-7.736-.971c-2.183-.237-4.077-.366-5.692-.409-.079,1.552-.139,3.213-.17,4.98-.029,1.789-.039,4.4-.039,7.847v6.187l.03,8.8c1.266-.086,3.419-.238,6.47-.474s5.353-.41,6.908-.539c-.1,1.315-.159,2.35-.189,3.126s-.04,1.552-.04,2.307c0,1.142.06,2.867.2,5.174a3.631,3.631,0,0,1,.029.388c-3.658-.474-6.45-.777-8.374-.948s-3.589-.259-5.034-.259V63.364c0,5.562.02,9.465.059,11.685.04,2.242.1,4.118.169,5.627,1.834-.129,3.868-.344,6.091-.669,2.234-.3,4.666-.733,7.317-1.228-.059.84-.1,1.681-.129,2.5s-.04,1.66-.04,2.544.03,2.048.08,3.514c.059,1.445.089,2.328.089,2.674-3.987-.26-7.058-.41-9.2-.5s-3.868-.129-5.193-.129c-1.8,0-3.38.043-4.775.151a39.229,39.229,0,0,0-3.9.474M187.91,24.1a46.327,46.327,0,0,0-4.955-14.315,16.127,16.127,0,0,0-6.041-6.252,17.076,17.076,0,0,0-6.869-1.8q-1.236-.1-2.6-.1c-1.435,0-3.519.087-6.231.237-2.721.173-4.705.259-5.971.259a20.607,20.607,0,0,1-2.383-.129,20.885,20.885,0,0,1-2.263-.366q.314,6.564.479,14.747t.159,22.53v18.5q0,12.709-.159,19.835-.165,7.146-.479,12.763c.23-.044.589-.087,1.047-.13a28.136,28.136,0,0,1,3.25-.258c.8,0,2.323.064,4.586.194s4.117.194,5.573.194a22.488,22.488,0,0,0,4.995-.537q8.6-1.952,13.438-11.02,6.161-11.577,6.161-34.625A102.369,102.369,0,0,0,187.91,24.1M176.066,73.367q-2.332,5.618-6.021,7.916a10.662,10.662,0,0,1-5.752,1.592,10.521,10.521,0,0,1-1.944-.194,14.528,14.528,0,0,1-2.143-.561c-.04-3.88-.07-8.041-.09-12.5s-.03-10.995-.03-19.576c0-8.085.02-15.458.06-22.076q.06-9.96.169-18.541c.4-.044.917-.086,1.585-.129q1.9-.129,2.452-.129a12.7,12.7,0,0,1,5.693,1.237,13.6,13.6,0,0,1,6.29,7.171Q180,25.947,180,44.973q0,18.887-3.939,28.393M131.324,90.011q.314-8.538.478-18.391c.109-6.554.159-15.134.159-25.7q0-15.361-.159-25.742t-.478-18.541a21.551,21.551,0,0,0,2.582.6,15.184,15.184,0,0,0,2.612.216,14.781,14.781,0,0,0,2.592-.216,20.509,20.509,0,0,0,2.543-.6q-.344,8.279-.508,18.692-.164,10.445-.16,25.591,0,16.492.16,26.237.164,9.767.478,17.852c-.957-.216-1.854-.367-2.7-.474a18.9,18.9,0,0,0-2.4-.151,19.35,19.35,0,0,0-2.462.151c-.848.107-1.755.258-2.732.474M120.757,48.768a10.786,10.786,0,0,0-9.92-5.433v-.711a11.944,11.944,0,0,0,8.983-6.209q3.17-5.4,3.17-14.444,0-10.155-3.3-15.242t-9.869-5.088q-.185,0-.414.007-1.028.028-2.926.187c-1.555.129-2.742.194-3.579.194-.758,0-1.765-.043-3.021-.108s-2.761-.151-4.516-.28q.343,6.759.488,15.544Q96,25.948,96,45.922V57.413c0,8.472-.049,15.07-.16,19.835s-.269,9.012-.478,12.763a3.336,3.336,0,0,0,.5-.065,26.077,26.077,0,0,1,3.619-.431c1.207,0,2.971.086,5.283.237q3.015.224,4.641.254.253.005.474.005,6.684,0,10.408-6.468c2.482-4.334,3.728-10.349,3.728-18.109,0-7.5-1.087-13.044-3.26-16.666M104.617,25.074c0-3.19.04-6.123.1-8.775s.179-5.088.339-7.265a10.13,10.13,0,0,1,1.2-.238c.26-.022.488-.022.708-.022a5.527,5.527,0,0,1,2.448.537,6.617,6.617,0,0,1,2.936,3.15c1.237,2.478,1.854,6.058,1.854,10.779q0,8.8-2.064,13.022a7.658,7.658,0,0,1-2.726,3.251,6.577,6.577,0,0,1-3.594.975,4.254,4.254,0,0,1-.578-.065,4.49,4.49,0,0,0-.619-.065Zm8.065,53.381a7.876,7.876,0,0,1-3.275,4.091,4.992,4.992,0,0,1-2.4.587,3.341,3.341,0,0,1-.9-.129,7.432,7.432,0,0,1-1.207-.5c-.069-3.083-.129-6.166-.169-9.227-.04-3.083-.06-6.1-.06-9.034V47.5a2.767,2.767,0,0,1,.728-.172c.259-.022.608-.022,1.056-.022a5.808,5.808,0,0,1,2.946.755,8.093,8.093,0,0,1,3.155,3.794q2.109,4.561,2.1,13.216,0,8.7-1.984,13.389M39.309,90.011c.488-6.663.907-12.354,1.256-17.119s.589-8.149.7-10.176L45.091,1.639a5.865,5.865,0,0,0,1.216.366,6.612,6.612,0,0,0,1.356.129,7.063,7.063,0,0,0,1.386-.129,6.326,6.326,0,0,0,1.265-.366q3.216,15.489,6.68,30.55t7.138,29.9c2.353-9.551,4.675-19.382,6.948-29.428q3.425-15.1,6.689-31.024a7.016,7.016,0,0,0,1.317.366,7.469,7.469,0,0,0,1.425.129,7.612,7.612,0,0,0,1.445-.129,6.336,6.336,0,0,0,1.306-.366l3.419,61.832q.554,10.284.987,16.127c.289,3.9.6,7.373.907,10.414-.977-.194-1.874-.346-2.7-.453a18.518,18.518,0,0,0-2.382-.173,18.224,18.224,0,0,0-2.373.151,23.109,23.109,0,0,0-2.562.474c-.02-.3-.04-.733-.06-1.337q-.254-13.549-.439-16.794L76.135,30.637q-3.365,13.873-6.719,28.61-3.35,14.714-6.859,30.765a1.6,1.6,0,0,0-.459-.194,3.38,3.38,0,0,0-.8-.065,2.9,2.9,0,0,0-.728.065,1.475,1.475,0,0,0-.438.194q-3.484-15.783-6.809-30.1t-6.54-27.208L45.35,59.569,45.3,60.582q-1.092,20.891-1.117,29.429a7.125,7.125,0,0,0-1.286-.474,4.428,4.428,0,0,0-1.136-.151,4.318,4.318,0,0,0-1.166.151,8.383,8.383,0,0,0-1.286.474M29,43.96Q24.859,21.484,21.234,0A5.519,5.519,0,0,1,20.2.281a6.25,6.25,0,0,1-1.1.108A7.19,7.19,0,0,1,17.934.281,9.848,9.848,0,0,1,16.709,0l-.075.452q-4,24.2-8.12,46.375Q4.357,69.238,0,90.011a1.1,1.1,0,0,0,.319-.065,11.97,11.97,0,0,1,2.512-.431,5.371,5.371,0,0,1,1.126.129c.4.087.877.194,1.445.367.488-2.867,1.027-6.08,1.625-9.659s1.465-9.034,2.613-16.364c.817-.085,1.7-.15,2.671-.194s2.406-.063,4.322-.064h.015q2.856,0,4.306.064c.967.044,1.854.109,2.672.194q1.585,10.219,2.412,15.7c.559,3.644,1.066,7.093,1.536,10.328a22.537,22.537,0,0,1,2.452-.367,26.647,26.647,0,0,1,2.712-.129,27.031,27.031,0,0,1,2.731.129,20.158,20.158,0,0,1,2.413.367Q33.158,66.436,29,43.96M18.652,55.688c-.718.022-1.376.022-2,.022h-.015q-1.749,0-5.159-.259h-.169Q12.561,47.5,13.917,40.1q1.3-7.041,2.717-13.649l.135-.624q1.42,7.083,2.731,14.51,1.3,7.405,2.462,15.113c-1.5.129-2.6.216-3.31.237" transform="translate(0 0)" fill="#0067b6"/>
  </g>
</svg>
