<?xml version="1.0" encoding="UTF-8"?>
<svg id="Capa_3" data-name="Capa 3" xmlns="http://www.w3.org/2000/svg" viewBox="0 0 141 141">
  <defs>
    <style>
      .cls-1 {
        fill: #48c8ff;
      }
    </style>
  </defs>
  <path class="cls-1" d="M92.75,124.28h-43.58c-1.51,0-2.92-.81-3.68-2.13l-21.79-37.74c-.76-1.31-.76-2.94,0-4.25l21.79-37.74c.75-1.31,2.17-2.12,3.68-2.12h43.58c1.51,0,2.92.81,3.68,2.12l21.79,37.74c.76,1.31.76,2.94,0,4.25l-21.79,37.74c-.76,1.31-2.17,2.12-3.68,2.12ZM49.18,42.8c-.62,0-1.2.33-1.51.87l-21.79,37.74c-.31.54-.31,1.21,0,1.75l21.79,37.74c.31.54.89.88,1.51.88h43.58c.62,0,1.2-.33,1.52-.88l21.79-37.74c.31-.54.31-1.21,0-1.75l-21.79-37.74c-.31-.54-.89-.88-1.52-.88h-43.58Z"/>
  <g>
    <path class="cls-1" d="M74.15,110.38l-5.52-5.52,2.02-7.54,7.54-2.02,5.52,5.52-2.02,7.54-7.54,2.02ZM69.74,104.56l4.7,4.7,6.43-1.72,1.72-6.43-4.7-4.7-6.43,1.72-1.72,6.43Z"/>
    <path class="cls-1" d="M62.05,107.14l-5.52-5.52,2.02-7.54,7.54-2.02,5.52,5.52-2.02,7.54-7.54,2.02ZM57.65,101.33l4.7,4.7,6.43-1.72,1.72-6.43-4.7-4.7-6.43,1.72-1.72,6.43Z"/>
    <path class="cls-1" d="M58.96,94.99c-.13,0-.26-.05-.35-.15l-3.08-3.08c-.2-.2-.2-.51,0-.71s.51-.2.71,0l3.08,3.08c.2.2.2.51,0,.71-.1.1-.23.15-.35.15Z"/>
    <path class="cls-1" d="M54.52,92.48c-.62,0-1.24-.24-1.72-.71s-.71-1.07-.71-1.72.25-1.26.71-1.72c.95-.95,2.49-.95,3.43,0,.46.46.71,1.07.71,1.72s-.25,1.26-.71,1.72-1.09.71-1.72.71ZM54.52,88.62c-.37,0-.73.14-1.01.42s-.42.63-.42,1.01.15.74.42,1.01c.56.56,1.46.56,2.02,0,.27-.27.42-.63.42-1.01s-.15-.74-.42-1.01-.64-.42-1.01-.42Z"/>
    <path class="cls-1" d="M84.36,111.53c-.13,0-.26-.05-.35-.15l-3.08-3.08c-.2-.2-.2-.51,0-.71s.51-.2.71,0l3.08,3.08c.2.2.2.51,0,.71-.1.1-.23.15-.35.15Z"/>
    <path class="cls-1" d="M85.72,114.82c-.62,0-1.24-.24-1.72-.71s-.71-1.07-.71-1.72.25-1.26.71-1.72c.95-.95,2.49-.95,3.43,0,.46.46.71,1.07.71,1.72s-.25,1.26-.71,1.72-1.09.71-1.72.71ZM85.72,110.97c-.37,0-.73.14-1.01.42s-.42.63-.42,1.01.15.74.42,1.01c.56.56,1.46.56,2.02,0,.27-.27.42-.63.42-1.01s-.15-.74-.42-1.01-.64-.42-1.01-.42Z"/>
    <path class="cls-1" d="M61.07,111.29s-.09,0-.13-.02c-.27-.07-.43-.35-.35-.61l1.13-4.21c.07-.27.35-.42.61-.35.27.07.43.35.35.61l-1.13,4.21c-.06.22-.26.37-.48.37Z"/>
    <path class="cls-1" d="M60.58,115.08c-.21,0-.42-.03-.63-.08-.63-.17-1.15-.57-1.47-1.13-.33-.56-.41-1.22-.24-1.84.17-.63.57-1.15,1.13-1.47s1.22-.41,1.84-.24h0c1.29.35,2.06,1.68,1.72,2.97-.17.63-.57,1.15-1.13,1.47-.37.22-.79.33-1.21.33ZM60.57,111.22c-.25,0-.49.06-.71.19-.33.19-.57.5-.67.87-.1.37-.05.75.14,1.08.19.33.5.57.87.67.37.1.75.05,1.08-.14.33-.19.57-.5.67-.87.2-.76-.25-1.55-1.01-1.75h0c-.12-.03-.25-.05-.37-.05Z"/>
    <path class="cls-1" d="M73.06,114.67s-.09,0-.13-.02c-.27-.07-.42-.35-.35-.61l1.13-4.21c.07-.27.34-.42.61-.35.27.07.42.35.35.61l-1.13,4.21c-.06.22-.26.37-.48.37Z"/>
    <path class="cls-1" d="M72.57,118.46c-.21,0-.42-.03-.63-.08-1.29-.35-2.06-1.68-1.72-2.97.17-.63.57-1.15,1.13-1.47s1.22-.41,1.84-.24c.63.17,1.15.57,1.47,1.13s.41,1.22.24,1.84c-.17.63-.57,1.15-1.13,1.48-.37.22-.79.33-1.21.33ZM72.56,114.6c-.25,0-.49.07-.71.19-.33.19-.57.5-.67.87-.2.76.25,1.55,1.01,1.75.37.1.75.05,1.08-.14s.57-.5.67-.87c.1-.37.05-.75-.14-1.08-.19-.33-.5-.57-.87-.67-.12-.03-.25-.05-.37-.05Z"/>
    <path class="cls-1" d="M78.01,96.33s-.09,0-.13-.02c-.27-.07-.42-.35-.35-.61l1.13-4.21c.07-.27.35-.42.61-.35.27.07.42.35.35.61l-1.13,4.21c-.06.22-.26.37-.48.37Z"/>
    <path class="cls-1" d="M79.64,92.19c-.21,0-.42-.03-.63-.08h0c-.63-.17-1.15-.57-1.48-1.13s-.41-1.22-.24-1.84c.35-1.29,1.68-2.06,2.97-1.72.63.17,1.15.57,1.47,1.13s.41,1.22.24,1.84c-.29,1.08-1.28,1.8-2.35,1.8ZM79.64,88.34c-.63,0-1.21.42-1.38,1.06-.1.37-.05.75.14,1.08s.5.57.87.67h0c.76.21,1.54-.25,1.75-1.01.2-.76-.25-1.54-1.01-1.75-.12-.03-.25-.05-.37-.05Z"/>
  </g>
  <g>
    <path class="cls-1" d="M63.26,53.75c.73.74,1.1,1.71,1.1,2.91s-.37,2.14-1.12,2.87c-.74.72-1.72,1.08-2.94,1.08h-3.99c-.05,0-.08.03-.08.08v6.1c0,.14-.07.21-.2.21h-1.04c-.14,0-.2-.07-.2-.21v-13.94c0-.14.07-.2.2-.2h5.38c1.2,0,2.17.37,2.9,1.11ZM62.16,58.65c.5-.5.76-1.16.76-1.98s-.25-1.5-.76-2.01c-.51-.5-1.16-.76-1.97-.76h-3.89c-.05,0-.08.03-.08.08v5.32c0,.05.03.08.08.08h3.89c.81,0,1.46-.25,1.97-.75Z"/>
    <path class="cls-1" d="M70.15,66.83l-4.46-13.94-.02-.08c0-.09.06-.14.18-.14h1.11c.12,0,.21.05.25.16l3.73,12s.03.04.06.04.05-.01.06-.04l3.73-12c.04-.11.12-.16.25-.16h1.08c.15,0,.21.08.16.22l-4.5,13.94c-.04.11-.12.16-.25.16h-1.13c-.12,0-.2-.05-.25-.16Z"/>
    <path class="cls-1" d="M80.32,66.61c-.72-.38-1.29-.91-1.69-1.6-.4-.69-.6-1.48-.6-2.38v-5.63c0-.89.2-1.67.6-2.35.4-.68.96-1.21,1.69-1.59.72-.38,1.56-.56,2.52-.56s1.79.18,2.52.55,1.29.89,1.69,1.56c.4.67.6,1.44.6,2.31,0,.07-.02.12-.06.16s-.09.06-.14.06l-1.04.06c-.14,0-.2-.06-.2-.18v-.06c0-.97-.31-1.74-.92-2.32s-1.43-.87-2.44-.87-1.82.29-2.44.88-.92,1.36-.92,2.31v5.73c0,.96.31,1.73.92,2.31s1.43.88,2.44.88,1.82-.29,2.44-.87.92-1.35.92-2.32v-.04c0-.12.07-.18.2-.18l1.04.06c.14,0,.21.06.21.18,0,.89-.2,1.67-.6,2.34-.4.68-.97,1.2-1.69,1.57-.72.37-1.56.55-2.52.55s-1.79-.19-2.52-.56Z"/>
  </g>
  <path class="cls-1" d="M76.31,80.79h-4.1v-3.85c0-.69-.56-1.25-1.25-1.25s-1.25.56-1.25,1.25v3.85h-4.1c-.83,0-1.5.67-1.5,1.5s.67,1.5,1.5,1.5h4.1v3.85c0,.69.56,1.25,1.25,1.25s1.25-.56,1.25-1.25v-3.85h4.1c.83,0,1.5-.67,1.5-1.5s-.67-1.5-1.5-1.5Z"/>
</svg>