<?xml version="1.0" encoding="UTF-8"?>
<svg id="Capa_3" data-name="Capa 3" xmlns="http://www.w3.org/2000/svg" viewBox="0 0 141 141">
  <defs>
    <style>
      .cls-1 {
        fill: #48c8ff;
      }
    </style>
  </defs>
  <path class="cls-1" d="M70.5,124.28c-.91,0-1.81-.25-2.61-.75l-6.11-3.88c-18.23-11.58-29.12-31.38-29.12-52.98v-20.07c0-2.14,1.43-4.05,3.48-4.66l32.98-9.78c.9-.27,1.86-.27,2.76,0l32.98,9.78c2.05.61,3.48,2.52,3.48,4.66v20.06c0,21.6-10.89,41.41-29.13,52.99l-6.11,3.88c-.79.5-1.7.75-2.6.75ZM70.5,34.46c-.23,0-.45.03-.67.1l-32.98,9.78c-1,.3-1.69,1.23-1.69,2.26v20.07c0,20.74,10.45,39.75,27.96,50.87l6.11,3.88c.77.49,1.76.49,2.53,0l6.11-3.88c17.51-11.11,27.97-30.13,27.97-50.87v-20.06c0-1.04-.7-1.97-1.69-2.26l-32.98-9.78c-.22-.06-.45-.1-.67-.1Z"/>
  <path class="cls-1" d="M71.06,114.63l7.3-4.64c13.54-8.59,21.74-23.52,21.74-39.55v-19.74c0-.16-.11-.31-.26-.35l-28.87-8.56c-.24-.07-.47.11-.47.35v72.18c0,.29.32.47.56.31Z"/>
</svg>