<?xml version="1.0" encoding="UTF-8"?>
<svg id="Capa_3" data-name="Capa 3" xmlns="http://www.w3.org/2000/svg" viewBox="0 0 141 141">
  <defs>
    <style>
      .cls-1 {
        fill: #48c8ff;
      }
    </style>
  </defs>
  <path class="cls-1" d="M91.97,35.41c-2.28,0-4.28,1.2-5.42,3v-6.57c0-3.51-2.85-6.36-6.36-6.36-2.25,0-4.23,1.18-5.36,2.95v-3.53c0-3.68-3-6.68-6.68-6.68s-6.68,3-6.68,6.68v4.26c-1.18-1.9-3.27-3.17-5.67-3.17-1.81,0-3.5.71-4.77,2.01-1.27,1.29-1.94,3-1.9,4.81l.96,41.19-7.64-11.86c-1.88-2.91-5.63-3.94-8.73-2.4-3.16,1.57-4.59,5.35-3.27,8.62l6.97,17.27c2.22,5.49,5.46,10.4,9.65,14.58l2.84,2.84c.75.75,1.19,1.8,1.19,2.87v10.81c-1.86.25-3.3,1.82-3.3,3.75,0,2.09,1.7,3.8,3.8,3.8h37.77c2.09,0,3.8-1.7,3.8-3.8,0-1.92-1.44-3.5-3.3-3.75v-11.37c0-.74.26-1.45.72-2.02l1.88-2.31c1.6-1.96,2.91-4.14,3.88-6.48.11-.25-.01-.55-.27-.65-.25-.1-.55.01-.65.27-.94,2.25-2.19,4.35-3.73,6.24l-1.88,2.31c-.61.75-.94,1.69-.94,2.66v11.32h-36.77v-10.76c0-1.35-.53-2.62-1.48-3.57l-2.84-2.84c-4.09-4.09-7.26-8.89-9.43-14.25l-6.97-17.27c-1.13-2.79.1-6.01,2.79-7.35,2.64-1.31,5.84-.43,7.44,2.05l8.29,12.86c.16.25.46.37.75.28.29-.09.48-.35.47-.65l-.99-42.39c-.04-1.54.54-2.99,1.61-4.09,1.08-1.1,2.51-1.71,4.05-1.71,3.12,0,5.67,2.54,5.67,5.67v26.94c0,.28.22.5.5.5s.5-.22.5-.5V24.9c0-3.13,2.55-5.68,5.68-5.68s5.68,2.55,5.68,5.68v34.19c0,.28.22.5.5.5s.5-.22.5-.5v-27.25c0-2.95,2.4-5.36,5.36-5.36s5.36,2.4,5.36,5.36v27.25c0,.28.22.5.5.5s.5-.22.5-.5v-17.25c0-2.99,2.43-5.42,5.42-5.42s5.42,2.43,5.42,5.42v6.39c0,.28.22.5.5.5s.5-.22.5-.5v-6.39c0-3.54-2.88-6.42-6.42-6.42ZM92.18,120.48c0,1.54-1.25,2.8-2.8,2.8h-37.77c-1.54,0-2.8-1.25-2.8-2.8s1.25-2.8,2.8-2.8h37.77c1.54,0,2.8,1.25,2.8,2.8Z"/>
  <path class="cls-1" d="M110.92,56.77l-6.33-6.33c-1.09-1.09-2.86-1.08-3.94,0l-6.33,6.33c-.78.78-.78,2.05,0,2.83s2.05.78,2.83,0l3.47-3.47v13.88c0,1.1.9,2,2,2s2-.9,2-2v-13.88l3.47,3.47c.39.39.9.59,1.41.59s1.02-.2,1.41-.59c.78-.78.78-2.05,0-2.83Z"/>
  <path class="cls-1" d="M101.47,81.17c-.78-.78-2.05-.78-2.83,0l-3.47,3.47v-13.88c0-1.1-.9-2-2-2s-2,.9-2,2v13.88l-3.47-3.47c-.78-.78-2.05-.78-2.83,0s-.78,2.05,0,2.83l6.33,6.33c.53.53,1.23.82,1.97.82s1.45-.29,1.97-.82l6.33-6.33c.78-.78.78-2.05,0-2.83Z"/>
</svg>