<?xml version="1.0" encoding="UTF-8"?>
<svg id="Capa_3" data-name="Capa 3" xmlns="http://www.w3.org/2000/svg" viewBox="0 0 141 141">
  <defs>
    <style>
      .cls-1 {
        fill: #48c8ff;
      }
    </style>
  </defs>
  <path class="cls-1" d="M94.05,33.91c-1.78,0-3.41.66-4.67,1.74v-4.57c0-3.92-3.19-7.11-7.11-7.11-1.76,0-3.37.65-4.61,1.71v-1.54c0-4.09-3.33-7.43-7.43-7.43s-7.43,3.33-7.43,7.43v2.22c-1.31-1.16-3.03-1.88-4.92-1.88-2.01,0-3.9.79-5.3,2.23s-2.16,3.34-2.11,5.36l.9,38.53-6.2-9.62c-2.08-3.23-6.25-4.38-9.69-2.67-3.5,1.74-5.1,5.95-3.64,9.57l6.97,17.27c2.25,5.58,5.56,10.58,9.81,14.83l2.84,2.84c.62.62.97,1.45.97,2.33v10.2c-1.9.55-3.3,2.28-3.3,4.35,0,2.51,2.04,4.55,4.55,4.55h37.77c2.51,0,4.55-2.04,4.55-4.55,0-2.07-1.4-3.8-3.3-4.35v-8.91c0-.69-.56-1.25-1.25-1.25s-1.25.56-1.25,1.25v8.72h-35.27v-10.01c0-1.55-.6-3.01-1.7-4.1l-2.84-2.84c-4.02-4.02-7.14-8.73-9.26-14l-6.97-17.27c-.98-2.42.09-5.24,2.43-6.4,2.3-1.14,5.09-.38,6.48,1.78l8.29,12.87c.35.54.99.77,1.6.58.61-.19,1.01-.74,1-1.38l-.99-42.39c-.03-1.33.47-2.6,1.4-3.55.93-.96,2.18-1.48,3.52-1.48,2.71,0,4.92,2.21,4.92,4.92v26.94c0,.69.56,1.25,1.25,1.25s1.25-.56,1.25-1.25V24.15c0-2.72,2.21-4.93,4.93-4.93s4.93,2.21,4.93,4.93v34.19c0,.69.56,1.25,1.25,1.25s1.25-.56,1.25-1.25v-27.25c0-2.54,2.07-4.61,4.61-4.61s4.61,2.07,4.61,4.61v23.25c0,.69.56,1.25,1.25,1.25s1.25-.56,1.25-1.25v-13.25c0-2.58,2.1-4.67,4.67-4.67s4.67,2.1,4.67,4.67v16.48c0,.69.56,1.25,1.25,1.25s1.25-.56,1.25-1.25v-16.48c0-3.96-3.22-7.17-7.17-7.17ZM93.51,119.73c0,1.13-.92,2.05-2.05,2.05h-37.77c-1.13,0-2.05-.92-2.05-2.05s.92-2.05,2.05-2.05h37.77c1.13,0,2.05.92,2.05,2.05Z"/>
  <g>
    <path class="cls-1" d="M80.86,70.87c-1.43,0-2.6-1.17-2.6-2.6s1.17-2.6,2.6-2.6,2.6,1.17,2.6,2.6-1.17,2.6-2.6,2.6ZM80.86,66.67c-.88,0-1.6.72-1.6,1.6s.72,1.6,1.6,1.6,1.6-.72,1.6-1.6-.72-1.6-1.6-1.6Z"/>
    <path class="cls-1" d="M79,77.81c-1.43,0-2.6-1.17-2.6-2.6s1.17-2.6,2.6-2.6,2.6,1.17,2.6,2.6-1.17,2.6-2.6,2.6ZM79,73.6c-.88,0-1.6.72-1.6,1.6s.72,1.6,1.6,1.6,1.6-.72,1.6-1.6-.72-1.6-1.6-1.6Z"/>
    <path class="cls-1" d="M97.53,68.77c-1.43,0-2.6-1.17-2.6-2.6s1.17-2.6,2.6-2.6,2.6,1.17,2.6,2.6-1.17,2.6-2.6,2.6ZM97.53,64.57c-.88,0-1.6.72-1.6,1.6s.72,1.6,1.6,1.6,1.6-.72,1.6-1.6-.72-1.6-1.6-1.6Z"/>
    <path class="cls-1" d="M78.07,90.77c-1.43,0-2.6-1.17-2.6-2.6s1.17-2.6,2.6-2.6,2.6,1.17,2.6,2.6-1.17,2.6-2.6,2.6ZM78.07,86.57c-.88,0-1.6.72-1.6,1.6s.72,1.6,1.6,1.6,1.6-.72,1.6-1.6-.72-1.6-1.6-1.6Z"/>
    <path class="cls-1" d="M102.39,83.44c-1.43,0-2.6-1.17-2.6-2.6s1.17-2.6,2.6-2.6,2.6,1.17,2.6,2.6-1.17,2.6-2.6,2.6ZM102.39,79.23c-.88,0-1.6.72-1.6,1.6s.72,1.6,1.6,1.6,1.6-.72,1.6-1.6-.72-1.6-1.6-1.6Z"/>
    <path class="cls-1" d="M97.53,96.69c-1.43,0-2.6-1.17-2.6-2.6s1.17-2.6,2.6-2.6,2.6,1.17,2.6,2.6-1.17,2.6-2.6,2.6ZM97.53,92.49c-.88,0-1.6.72-1.6,1.6s.72,1.6,1.6,1.6,1.6-.72,1.6-1.6-.72-1.6-1.6-1.6Z"/>
    <path class="cls-1" d="M86.95,91.81c-1.43,0-2.6-1.17-2.6-2.6s1.17-2.6,2.6-2.6,2.6,1.17,2.6,2.6-1.17,2.6-2.6,2.6ZM86.95,87.61c-.88,0-1.6.72-1.6,1.6s.72,1.6,1.6,1.6,1.6-.72,1.6-1.6-.72-1.6-1.6-1.6Z"/>
    <path class="cls-1" d="M94.75,88.33c-1.43,0-2.6-1.17-2.6-2.6s1.17-2.6,2.6-2.6,2.6,1.17,2.6,2.6-1.17,2.6-2.6,2.6ZM94.75,84.13c-.88,0-1.6.72-1.6,1.6s.72,1.6,1.6,1.6,1.6-.72,1.6-1.6-.72-1.6-1.6-1.6Z"/>
    <path class="cls-1" d="M72.92,82.01c-1.43,0-2.6-1.17-2.6-2.6s1.17-2.6,2.6-2.6,2.6,1.17,2.6,2.6-1.17,2.6-2.6,2.6ZM72.92,77.81c-.88,0-1.6.72-1.6,1.6s.72,1.6,1.6,1.6,1.6-.72,1.6-1.6-.72-1.6-1.6-1.6Z"/>
    <path class="cls-1" d="M85.88,100.41c-1.43,0-2.6-1.17-2.6-2.6s1.17-2.6,2.6-2.6,2.6,1.17,2.6,2.6-1.17,2.6-2.6,2.6ZM85.88,96.21c-.88,0-1.6.72-1.6,1.6s.72,1.6,1.6,1.6,1.6-.72,1.6-1.6-.72-1.6-1.6-1.6Z"/>
    <path class="cls-1" d="M96.85,76.47c-1.43,0-2.6-1.17-2.6-2.6s1.17-2.6,2.6-2.6,2.6,1.17,2.6,2.6-1.17,2.6-2.6,2.6ZM96.85,72.27c-.88,0-1.6.72-1.6,1.6s.72,1.6,1.6,1.6,1.6-.72,1.6-1.6-.72-1.6-1.6-1.6Z"/>
    <path class="cls-1" d="M88.51,72.97c-1.43,0-2.6-1.17-2.6-2.6s1.17-2.6,2.6-2.6,2.6,1.17,2.6,2.6-1.17,2.6-2.6,2.6ZM88.51,68.77c-.88,0-1.6.72-1.6,1.6s.72,1.6,1.6,1.6,1.6-.72,1.6-1.6-.72-1.6-1.6-1.6Z"/>
    <path class="cls-1" d="M86.41,82.01c-1.43,0-2.6-1.17-2.6-2.6s1.17-2.6,2.6-2.6,2.6,1.17,2.6,2.6-1.17,2.6-2.6,2.6ZM86.41,77.81c-.88,0-1.6.72-1.6,1.6s.72,1.6,1.6,1.6,1.6-.72,1.6-1.6-.72-1.6-1.6-1.6Z"/>
  </g>
  <path class="cls-1" d="M89.05,60.2c-11.38,0-20.64,9.26-20.64,20.64s9.26,20.64,20.64,20.64,20.64-9.26,20.64-20.64-9.26-20.64-20.64-20.64ZM89.05,62.7c4.55,0,8.71,1.7,11.89,4.48l-25.55,25.55c-2.78-3.19-4.48-7.34-4.48-11.89,0-10,8.14-18.14,18.14-18.14ZM89.05,98.97c-4.55,0-8.71-1.7-11.89-4.48l25.55-25.55c2.78,3.19,4.48,7.34,4.48,11.89,0,10-8.14,18.14-18.14,18.14Z"/>
</svg>