<?xml version="1.0" encoding="UTF-8"?>
<svg id="Capa_3" data-name="Capa 3" xmlns="http://www.w3.org/2000/svg" viewBox="0 0 141 141">
  <defs>
    <style>
      .cls-1 {
        fill: #48c8ff;
      }
    </style>
  </defs>
  <path class="cls-1" d="M91.19,103.06l1.88-2.31c3.92-4.81,6.07-10.87,6.07-17.07v-42.59c0-3.95-3.22-7.17-7.17-7.17-1.78,0-3.42.66-4.67,1.74v-4.57c0-3.92-3.19-7.11-7.11-7.11-1.76,0-3.37.65-4.61,1.71v-1.54c0-4.09-3.33-7.43-7.43-7.43s-7.43,3.33-7.43,7.43v2.22c-1.31-1.16-3.03-1.88-4.92-1.88-2.01,0-3.9.79-5.31,2.23s-2.16,3.34-2.11,5.36l.9,38.53-6.2-9.62c-2.08-3.23-6.25-4.38-9.69-2.67-3.5,1.74-5.1,5.95-3.64,9.57l6.97,17.27c2.25,5.58,5.56,10.57,9.81,14.83l2.84,2.84c.62.62.97,1.45.97,2.33v10.2c-1.9.55-3.3,2.28-3.3,4.35,0,2.51,2.04,4.55,4.55,4.55h37.77c2.51,0,4.55-2.04,4.55-4.55,0-2.07-1.4-3.8-3.3-4.35v-10.77c0-.56.2-1.11.55-1.55ZM48.32,98.23c-4.02-4.02-7.14-8.73-9.26-14l-6.97-17.27c-.98-2.42.09-5.24,2.43-6.4,2.3-1.14,5.09-.38,6.48,1.78l8.29,12.86c.34.53,1,.77,1.6.59.6-.18,1.01-.75,1-1.38l-.99-42.39c-.03-1.33.46-2.59,1.4-3.55.93-.96,2.18-1.48,3.52-1.48,2.71,0,4.92,2.21,4.92,4.92v26.94c0,.69.56,1.25,1.25,1.25s1.25-.56,1.25-1.25V24.15c0-2.72,2.21-4.93,4.93-4.93s4.93,2.21,4.93,4.93v34.19c0,.69.56,1.25,1.25,1.25s1.25-.56,1.25-1.25v-27.25c0-2.54,2.07-4.61,4.61-4.61s4.61,2.07,4.61,4.61v27.25c0,.69.56,1.25,1.25,1.25s1.25-.56,1.25-1.25v-17.25c0-2.58,2.1-4.67,4.67-4.67s4.67,2.1,4.67,4.67v42.59c0,5.63-1.96,11.13-5.51,15.49l-1.88,2.31c-.72.88-1.12,1.99-1.12,3.13v10.58h-35.27v-10.01c0-1.55-.6-3.01-1.7-4.1l-2.84-2.84ZM91.43,119.73c0,1.13-.92,2.05-2.05,2.05h-37.77c-1.13,0-2.05-.92-2.05-2.05s.92-2.05,2.05-2.05h37.77c1.13,0,2.05.92,2.05,2.05Z"/>
</svg>