<?xml version="1.0" encoding="UTF-8"?>
<svg id="Capa_3" data-name="Capa 3" xmlns="http://www.w3.org/2000/svg" viewBox="0 0 141 141">
  <defs>
    <style>
      .cls-1 {
        fill: #48c8ff;
      }
    </style>
  </defs>
  <path class="cls-1" d="M119.76,66.83c-2.22,0-4.04,1.81-4.04,4.04v.76c-18.97,1.35-36.09-3.7-39.39-4.75-4.39-1.4-8.88-2.11-13.35-2.11h-24.55c-3.45,0-6.25,2.73-6.25,6.08,0,1.36.46,2.65,1.22,3.72l-3.41-.13c-3.42,0-6.2,2.71-6.2,6.03,0,1.32.44,2.54,1.18,3.53h-.85c-3.56,0-6.46,2.82-6.46,6.29s2.9,6.29,6.46,6.29h1.41c-.82,1.05-1.31,2.36-1.31,3.78,0,1.67.67,3.25,1.88,4.43,1.22,1.2,2.84,1.85,4.6,1.85.05,0,.11,0,.16,0l31.97-1.49-7.68,5.38c-2.83,1.77-3.84,5.3-2.33,8.23,1.14,2.21,3.47,3.52,5.9,3.52.81,0,1.63-.15,2.41-.45l13.86-9.13c2.89-2.01,5.41-4.91,7.64-7.48.63-.72,1.24-1.43,1.83-2.08,3.03-3.33,5.8-5.52,8.48-6.67,4.82-2.07,16.66-3.51,22.77.85v1.11c0,2.22,1.81,4.03,4.04,4.03s4.03-1.81,4.03-4.03v-27.56c0-2.22-1.81-4.04-4.03-4.04ZM91.97,94.17c-3.01,1.3-6.07,3.68-9.34,7.28-.6.67-1.23,1.38-1.87,2.12-2.13,2.45-4.55,5.24-7.16,7.05l-13.48,8.92c-1.94.69-4.14-.14-5.06-1.93-.91-1.76-.29-3.89,1.49-5l10.82-7.59c.53-.33.77-.97.59-1.57-.17-.59-.72-.99-1.36-.99h-.03l-35.78,1.67c-1.11.03-2.15-.38-2.92-1.14-.73-.71-1.13-1.65-1.13-2.64,0-2.09,1.78-3.78,4.02-3.78l27.03-1.35c.69-.03,1.22-.62,1.19-1.31-.03-.69-.58-1.21-1.31-1.19l-26.97,1.34h-6.55c-2.19,0-3.96-1.7-3.96-3.79s1.78-3.79,3.96-3.79h28.87c.69,0,1.25-.56,1.25-1.25s-.56-1.25-1.25-1.25h-23.01c-2.04,0-3.7-1.58-3.7-3.53s1.66-3.53,3.65-3.53l7.64.3c.28.04.56.07.85.07h1.01l17.86.71s.03,0,.05,0c.67,0,1.22-.53,1.25-1.2.03-.69-.51-1.27-1.2-1.3l-17.92-.71s0,0,0,0h0l-1.57-.06c-1.74-.3-3.22-2.01-3.22-3.89,0-1.98,1.68-3.58,3.75-3.58h24.55c4.21,0,8.44.67,12.59,1.99,3.36,1.07,20.79,6.22,40.14,4.88v9.99c-4.31-.54-7.79-1.32-7.83-1.33-.27-.06-.54.11-.6.38s.11.54.38.6c.04,0,3.63.81,8.05,1.36v9.25c-7.18-3.85-18.69-2.39-23.76-.21ZM121.3,98.42c0,.85-.69,1.53-1.53,1.53s-1.54-.69-1.54-1.53v-27.56c0-.85.69-1.54,1.54-1.54s1.53.69,1.53,1.54v27.56Z"/>
  <path class="cls-1" d="M73.75,80.84c-.27.03-.47.28-.44.55s.3.46.55.44c.08,0,7.76-.85,20.68,1.08.02,0,.05,0,.07,0,.24,0,.46-.18.49-.43.04-.27-.15-.53-.42-.57-13.06-1.95-20.87-1.09-20.94-1.08Z"/>
  <path class="cls-1" d="M79.85,86.77c-.07-.27-.35-.42-.62-.35-8.38,2.37-17.52,2.39-17.61,2.39-.28,0-.5.22-.5.5s.22.5.5.5c.09,0,9.36-.03,17.88-2.43.27-.08.42-.35.35-.62Z"/>
  <path class="cls-1" d="M62,73.77c6.74-.28,13.24.79,22.24,2.26,5.84.95,12.46,2.03,20.74,3.01.02,0,.04,0,.06,0,.25,0,.47-.19.5-.44.03-.27-.16-.52-.44-.55-8.26-.98-14.87-2.05-20.7-3-9.06-1.48-15.6-2.54-22.45-2.27-.28.01-.49.24-.48.52.01.28.25.47.52.48Z"/>
  <path class="cls-1" d="M111.11,88.89c-12.43-2.47-22.46-.71-28.68,1.2-6.76,2.08-10.52,4.7-10.68,4.81-.23.16-.28.47-.12.7.1.14.25.21.41.21.1,0,.2-.03.29-.09.04-.03,3.82-2.66,10.44-4.69,6.1-1.87,15.94-3.59,28.15-1.16.27.05.53-.12.59-.39s-.12-.53-.39-.59Z"/>
</svg>